nColumns=28
nRows=60
DataType=double
version=3
OpenSimVersion=4.1
endheader
time	ground_force_1_vx	ground_force_1_vy	ground_force_1_vz	ground_force_1_px	ground_force_1_py	ground_force_1_pz	ground_force_1_mx	ground_force_1_my	ground_force_1_mz	ground_force_2_vx	ground_force_2_vy	ground_force_2_vz	ground_force_2_px	ground_force_2_py	ground_force_2_pz	ground_force_2_mx	ground_force_2_my	ground_force_2_mz	ground_force_3_vx	ground_force_3_vy	ground_force_3_vz	ground_force_3_px	ground_force_3_py	ground_force_3_pz	ground_force_3_mx	ground_force_3_my	ground_force_3_mz
0.135	0	0	0	0	0	0	0	0	0	-2.90053	342.415	-24.5566	-0.238979	0.006	-1.05678	0	-1.32769	0	27.7728	341.189	-2.13423	-0.118652	0.006	-1.46508	0	1.40087	0
0.14	0	0	0	0	0	0	0	0	0	-2.7771	342.255	-24.9023	-0.23901	0.006	-1.05712	0	-1.2588	0	27.8473	341.431	-2.39563	-0.118549	0.006	-1.46487	0	1.49882	0
0.145	0	0	0	0	0	0	0	0	0	-2.53296	341.064	-24.8108	-0.239303	0.006	-1.05715	0	-1.24562	0	27.8931	341.003	-2.45666	-0.118482	0.006	-1.46485	0	1.48319	0
0.15	0	0	0	0	0	0	0	0	0	-2.59399	339.783	-24.7345	-0.239291	0.006	-1.05736	0	-1.22541	0	28.0151	340.332	-2.31933	-0.118624	0.006	-1.46462	0	1.45522	0
0.155	0	0	0	0	0	0	0	0	0	-2.30408	338.47	-24.7497	-0.239153	0.006	-1.05727	0	-1.21325	0	27.9846	339.264	-2.4414	-0.118512	0.006	-1.46461	0	1.47357	0
0.16	0	0	0	0	0	0	0	0	0	-2.05994	337.799	-24.5666	-0.239634	0.006	-1.05739	0	-1.28331	0	27.9694	338.898	-2.54822	-0.118514	0.006	-1.46463	0	1.55454	0
0.165	0	0	0	0	0	0	0	0	0	-1.98364	336.212	-24.5208	-0.239738	0.006	-1.05769	0	-1.29539	0	28.1525	337.982	-2.67029	-0.118471	0.006	-1.46472	0	1.56404	0
0.17	0	0	0	0	0	0	0	0	0	-1.66321	335.327	-24.4293	-0.240247	0.006	-1.05758	0	-1.32704	0	28.2593	337.463	-2.7008	-0.118561	0.006	-1.46472	0	1.57015	0
0.175	0	0	0	0	0	0	0	0	0	-1.52588	334.381	-24.2767	-0.24085	0.006	-1.05736	0	-1.31617	0	28.2745	336.304	-2.88391	-0.118588	0.006	-1.46427	0	1.56163	0
0.18	0	0	0	0	0	0	0	0	0	-1.28174	333.71	-24.292	-0.240764	0.006	-1.05776	0	-1.428	0	27.9694	335.632	-2.7008	-0.118885	0.006	-1.464	0	1.56047	0
0.185	0	0	0	0	0	0	0	0	0	-1.09863	333.069	-24.414	-0.240674	0.006	-1.05765	0	-1.40453	0	28.2135	334.137	-3.17383	-0.118719	0.006	-1.46407	0	1.5792	0
0.19	0	0	0	0	0	0	0	0	0	-0.747681	332.367	-24.414	-0.241125	0.006	-1.05774	0	-1.45674	0	28.1982	333.16	-3.2959	-0.118646	0.006	-1.46385	0	1.58118	0
0.195	0	0	0	0	0	0	0	0	0	-0.671387	331.97	-24.4598	-0.241339	0.006	-1.0574	0	-1.4349	0	28.0914	332.703	-3.2959	-0.118738	0.006	-1.46386	0	1.57222	0
0.2	0	0	0	0	0	0	0	0	0	-0.823975	331.696	-24.4751	-0.241624	0.006	-1.05731	0	-1.43925	0	27.9388	331.909	-3.54004	-0.118767	0.006	-1.46355	0	1.59483	0
0.205	0	0	0	0	0	0	0	0	0	-0.579834	331.299	-24.5819	-0.241545	0.006	-1.05708	0	-1.50068	0	27.9083	330.872	-3.60107	-0.118715	0.006	-1.46321	0	1.5899	0
0.21	0	0	0	0	0	0	0	0	0	-0.579834	330.933	-24.6887	-0.242089	0.006	-1.05726	0	-1.56643	0	27.9694	330.78	-3.75366	-0.118729	0.006	-1.4634	0	1.59936	0
0.215	0	0	0	0	0	0	0	0	0	-0.289917	330.688	-24.826	-0.242115	0.006	-1.05707	0	-1.54281	0	27.9083	330.78	-3.78418	-0.118933	0.006	-1.46321	0	1.62708	0
0.22	0	0	0	0	0	0	0	0	0	-0.305176	330.597	-24.765	-0.242418	0.006	-1.05725	0	-1.60706	0	28.1677	330.2	-4.02832	-0.118878	0.006	-1.4627	0	1.62535	0
0.225	0	0	0	0	0	0	0	0	0	-0.12207	330.627	-24.7802	-0.242161	0.006	-1.05685	0	-1.64375	0	28.3508	329.987	-4.05884	-0.118859	0.006	-1.46248	0	1.58162	0
0.23	0	0	0	0	0	0	0	0	0	-0.137329	329.865	-24.8108	-0.242509	0.006	-1.05713	0	-1.61004	0	28.4882	329.987	-4.05884	-0.118949	0.006	-1.46234	0	1.59954	0
0.235	0	0	0	0	0	0	0	0	0	-0.0915527	329.559	-24.7345	-0.242007	0.006	-1.05702	0	-1.71134	0	28.4729	329.071	-4.44031	-0.118816	0.006	-1.46224	0	1.62424	0
0.24	0	0	0	0	0	0	0	0	0	-0.167847	328.644	-24.9786	-0.242417	0.006	-1.05721	0	-1.72679	0	28.7628	328.857	-4.66919	-0.118814	0.006	-1.46169	0	1.66989	0
0.245	0	0	0	0	0	0	0	0	0	-0.137329	328.43	-25.0244	-0.242486	0.006	-1.05706	0	-1.70779	0	28.8544	328.766	-4.63867	-0.118734	0.006	-1.4616	0	1.66957	0
0.25	0	0	0	0	0	0	0	0	0	-0.0915528	327.545	-24.9939	-0.242096	0.006	-1.05717	0	-1.75881	0	28.9917	328.4	-4.62341	-0.11892	0.006	-1.4613	0	1.66315	0
0.255	0	0	0	0	0	0	0	0	0	-0.350952	326.965	-25.2838	-0.24226	0.006	-1.05698	0	-1.78281	0	28.8086	327.759	-4.69971	-0.118858	0.006	-1.46134	0	1.66586	0
0.26	0	0	0	0	0	0	0	0	0	-0.381469	327.393	-25.5279	-0.242163	0.006	-1.05712	0	-1.77213	0	28.9917	327.332	-4.98962	-0.118935	0.006	-1.46143	0	1.69356	0
0.265	0	0	0	0	0	0	0	0	0	-0.411987	326.782	-25.5432	-0.241696	0.006	-1.05688	0	-1.81795	0	29.0222	326.416	-4.88281	-0.118875	0.006	-1.46129	0	1.69052	0
0.27	0	0	0	0	0	0	0	0	0	-0.518799	326.721	-25.4669	-0.241286	0.006	-1.0569	0	-1.73961	0	29.129	325.043	-5.14221	-0.118756	0.006	-1.46107	0	1.69074	0
0.275	0	0	0	0	0	0	0	0	0	-0.701904	326.599	-25.711	-0.241388	0.006	-1.05677	0	-1.87487	0	29.129	323.822	-5.17273	-0.11877	0.006	-1.46118	0	1.68093	0
0.28	0	0	0	0	0	0	0	0	0	-0.885009	326.569	-25.7873	-0.241522	0.006	-1.05707	0	-1.88711	0	29.3121	322.906	-5.12695	-0.118896	0.006	-1.46129	0	1.69885	0
0.285	0	0	0	0	0	0	0	0	0	-1.09863	327.271	-26.062	-0.241311	0.006	-1.05671	0	-1.96301	0	29.1748	322.449	-5.08118	-0.119086	0.006	-1.46117	0	1.71955	0
0.29	0	0	0	0	0	0	0	0	0	-1.25122	327.789	-26.123	-0.240955	0.006	-1.05652	0	-1.96019	0	29.1443	321.716	-4.94385	-0.119149	0.006	-1.46119	0	1.68341	0
0.295	0	0	0	0	0	0	0	0	0	-1.7395	328.339	-26.474	-0.241146	0.006	-1.05652	0	-1.96545	0	29.2969	321.655	-5.06592	-0.119112	0.006	-1.46119	0	1.71343	0
0.3	0	0	0	0	0	0	0	0	0	-1.80054	328.918	-26.7334	-0.240532	0.006	-1.05616	0	-1.97143	0	29.3121	321.381	-4.91333	-0.119137	0.006	-1.46121	0	1.7147	0
0.305	0	0	0	0	0	0	0	0	0	-2.15149	329.712	-26.9928	-0.240733	0.006	-1.05624	0	-2.01516	0	29.3121	320.587	-4.776	-0.118785	0.006	-1.46108	0	1.72282	0
0.31	0	0	0	0	0	0	0	0	0	-2.41089	330.444	-27.3285	-0.240564	0.006	-1.05615	0	-2.02541	0	29.2664	320.16	-4.91333	-0.118849	0.006	-1.46111	0	1.71251	0
0.315	0	0	0	0	0	0	0	0	0	-2.85339	331.39	-27.6489	-0.240208	0.006	-1.05627	0	-1.99388	0	29.2511	320.099	-4.94385	-0.118967	0.006	-1.46094	0	1.72816	0
0.32	0	0	0	0	0	0	0	0	0	-3.32642	332.642	-28.0609	-0.239858	0.006	-1.0561	0	-2.05129	0	29.1595	320.038	-4.97437	-0.118973	0.006	-1.46093	0	1.76839	0
0.325	0	0	0	0	0	0	0	0	0	-3.79944	333.374	-28.366	-0.239079	0.006	-1.0559	0	-2.06486	0	29.3732	320.251	-4.68445	-0.119061	0.006	-1.46135	0	1.74977	0
0.33	0	0	0	0	0	0	0	0	0	-4.39453	334.198	-28.5949	-0.239199	0.006	-1.05566	0	-2.12351	0	29.2816	319.55	-4.57764	-0.118884	0.006	-1.4614	0	1.79628	0
0.335	0	0	0	0	0	0	0	0	0	-4.68445	334.412	-28.9917	-0.238399	0.006	-1.05582	0	-2.2146	0	29.2358	319.824	-4.24194	-0.119032	0.006	-1.46109	0	1.7804	0
0.34	0	0	0	0	0	0	0	0	0	-5.52368	334.9	-29.1442	-0.23762	0.006	-1.05538	0	-2.13199	0	29.129	318.878	-4.37927	-0.118793	0.006	-1.46117	0	1.80407	0
0.345	0	0	0	0	0	0	0	0	0	-5.7373	334.778	-29.5105	-0.237432	0.006	-1.05528	0	-2.19013	0	29.0985	318.634	-3.93677	-0.118866	0.006	-1.46125	0	1.75075	0
0.35	0	0	0	0	0	0	0	0	0	-6.22559	335.053	-29.7241	-0.236672	0.006	-1.05526	0	-2.16902	0	29.2358	318.695	-4.04358	-0.118802	0.006	-1.46169	0	1.79801	0
0.355	0	0	0	0	0	0	0	0	0	-6.65283	334.503	-29.9072	-0.236412	0.006	-1.05508	0	-2.17883	0	29.2816	318.756	-3.86047	-0.118721	0.006	-1.46161	0	1.77397	0
0.36	0	0	0	0	0	0	0	0	0	-7.01904	333.923	-29.9835	-0.236357	0.006	-1.05497	0	-2.12429	0	29.4189	318.542	-3.50952	-0.118702	0.006	-1.46123	0	1.80774	0
0.365	0	0	0	0	0	0	0	0	0	-7.47681	333.099	-30.1055	-0.235426	0.006	-1.05491	0	-2.1337	0	29.4952	318.207	-3.60108	-0.118845	0.006	-1.46154	0	1.75835	0
0.37	0	0	0	0	0	0	0	0	0	-8.10242	332.916	-30.2734	-0.234961	0.006	-1.05478	0	-2.11271	0	29.5868	317.718	-3.7384	-0.118834	0.006	-1.46174	0	1.76262	0
0.375	0	0	0	0	0	0	0	0	0	-8.22449	332.672	-30.426	-0.234618	0.006	-1.05473	0	-2.18533	0	29.7699	317.108	-3.50952	-0.119079	0.006	-1.46183	0	1.77053	0
0.38	0	0	0	0	0	0	0	0	0	-8.11768	332.031	-30.5938	-0.234186	0.006	-1.05426	0	-2.21874	0	30.0903	316.315	-3.54004	-0.119159	0.006	-1.46211	0	1.69446	0
0.385	0	0	0	0	0	0	0	0	0	-8.56018	331.421	-30.6854	-0.233759	0.006	-1.05421	0	-2.21697	0	30.0293	315.216	-3.46375	-0.119053	0.006	-1.46203	0	1.64747	0
0.39	0	0	0	0	0	0	0	0	0	-8.89587	329.865	-30.838	-0.233217	0.006	-1.05393	0	-2.21133	0	30.3802	314.728	-3.54004	-0.119231	0.006	-1.46191	0	1.66564	0
0.395	0	0	0	0	0	0	0	0	0	-9.2926	327.881	-30.8685	-0.232882	0.006	-1.05411	0	-2.21522	0	30.4413	313.385	-3.61633	-0.119273	0.006	-1.46213	0	1.64466	0
0.4	0	0	0	0	0	0	0	0	0	-9.44519	326.508	-30.6396	-0.232432	0.006	-1.05368	0	-2.21577	0	30.5328	312.744	-3.98255	-0.119574	0.006	-1.46217	0	1.68437	0
0.405	0	0	0	0	0	0	0	0	0	-9.58252	323.944	-30.6244	-0.231931	0.006	-1.05353	0	-2.26282	0	30.6854	311.157	-3.89099	-0.119514	0.006	-1.46197	0	1.67554	0
0.41	0	0	0	0	0	0	0	0	0	-9.82666	321.35	-30.2887	-0.231678	0.006	-1.0535	0	-2.19376	0	30.426	309.753	-4.08936	-0.119429	0.006	-1.46221	0	1.61496	0
0.415	0	0	0	0	0	0	0	0	0	-10.0708	317.932	-30.1818	-0.231765	0.006	-1.05361	0	-2.17522	0	30.3192	307.709	-4.24194	-0.119254	0.006	-1.46234	0	1.63813	0
0.42	0	0	0	0	0	0	0	0	0	-10.5286	314.728	-29.953	-0.231617	0.006	-1.05368	0	-2.16158	0	30.1971	306.091	-4.3335	-0.119567	0.006	-1.46202	0	1.62172	0
0.425	0	0	0	0	0	0	0	0	0	-10.7727	311.371	-29.6325	-0.231301	0.006	-1.05338	0	-2.12874	0	30.2124	304.077	-4.48609	-0.119316	0.006	-1.46237	0	1.58865	0
0.43	0	0	0	0	0	0	0	0	0	-10.7422	307.068	-29.1748	-0.230667	0.006	-1.05339	0	-2.12781	0	30.0598	301.025	-4.56238	-0.119352	0.006	-1.46231	0	1.59951	0
